<svg width="318" height="307" viewBox="0 0 318 307" fill="none" xmlns="http://www.w3.org/2000/svg">
<path d="M154.182 307C239.335 307 308.364 238.276 308.364 153.5C308.364 68.7243 239.335 0 154.182 0C69.0295 0 0 68.7243 0 153.5C0 238.276 69.0295 307 154.182 307Z" fill="url(#paint0_linear_780_30)"/>
<path fill-rule="evenodd" clip-rule="evenodd" d="M216.44 181.323L194.211 187.807L178.607 141.497C178.607 141.497 235.959 115.636 253.699 119.195C268.179 122.1 272.366 150.518 273.416 160.868C275.75 180.132 273.756 199.781 267.295 218.338C257.696 245.901 239.029 269.433 214.316 285.122C189.602 300.81 160.29 307.737 131.127 304.779C101.964 301.821 74.6589 289.152 53.6333 268.826C32.6082 248.498 19.0947 221.703 15.2814 192.779C11.468 163.855 17.5788 134.497 32.6236 109.46C47.6684 84.4234 70.7657 65.1741 98.1752 54.8305C125.585 44.4869 155.7 43.6546 183.644 52.4683L166.173 107.324C150.645 102.426 133.909 102.889 118.679 108.637C103.448 114.385 90.6128 125.081 82.2529 138.994C73.8927 152.906 70.497 169.22 72.6161 185.292C74.7348 201.365 82.2443 216.255 93.9278 227.551C105.612 238.847 120.784 245.886 136.989 247.53C153.195 249.174 169.483 245.325 183.216 236.606C196.95 227.888 207.323 214.812 212.657 199.495C214.714 193.586 215.975 187.478 216.44 181.323Z" fill="white"/>
<defs>
<linearGradient id="paint0_linear_780_30" x1="60.7735" y1="33.2128" x2="280.017" y2="244.001" gradientUnits="userSpaceOnUse">
<stop stop-color="#ED4A27"/>
<stop offset="1" stop-color="#EF9A3E"/>
</linearGradient>
</defs>
</svg>
